Pirates of the Caribbean 1 The Curse of the Black Pearl BRrip 1080p (2003)



SCREENS:
 
http://image.bayimg.com/gandnaadb.jpg
 
http://image.bayimg.com/gandoaadb.jpg
 
http://image.bayimg.com/gandpaadb.jpg



INFO:



Format                           : MP4
Format profile                   : Base Media / Version 2
Codec ID                         : mp42
File size                        : 1.56 GiB
Duration                         : 2h 23mn
Overall bit rate                 : 1 562 Kbps
Encoded date                     : UTC 2012-03-04 15:09:02
Tagged date                      : UTC 2012-03-04 17:07:16


Video
ID                               : 1
Format                           : AVC
Format/Info                      : Advanced Video Codec
Format profile                   : Main@L4.0
Format settings, CABAC           : Yes
Format settings, ReFrames        : 4 frames
Codec ID                         : avc1
Codec ID/Info                    : Advanced Video Coding
Duration                         : 2h 23mn
Bit rate mode                    : Variable
Bit rate                         : 1 461 Kbps
Width                            : 1 916 pixels
Height                           : 800 pixels
Display aspect ratio             : 2.35:1
Frame rate mode                  : Variable
Frame rate                       : 23.976 fps
Minimum frame rate               : 23.419 fps
Maximum frame rate               : 24.390 fps
Color space                      : YUV
Chroma subsampling               : 4:2:0
Bit depth                        : 8 bits
Scan type                        : Progressive
Bits/(Pixel*Frame)               : 0.040
Stream size                      : 1.46 GiB (94%)
Writing library                  : x264 core 112
Encoded date                     : UTC 2012-03-04 15:09:02
Tagged date                      : UTC 2012-03-04 17:07:16
Color primaries                  : BT.709-5, BT.1361, IEC 61966-2-4, SMPTE RP177
Transfer characteristics         : BT.709-5, BT.1361
Matrix coefficients              : BT.709-5, BT.1361, IEC 61966-2-4 709, SMPTE RP177

Audio
ID                               : 2
Format                           : AAC
Format/Info                      : Advanced Audio Codec
Format profile                   : LC
Codec ID                         : 40
Duration                         : 2h 23mn
Bit rate mode                    : Variable
Bit rate                         : 96.0 Kbps
Maximum bit rate                 : 137 Kbps
Channel(s)                       : 2 channels
Channel positions                : Front: L R
Sampling rate                    : 48.0 KHz
Compression mode                 : Lossy
Stream size                      : 98.2 MiB (6%)
Encoded date                     : UTC 2012-03-04 15:09:02
Tagged date                      : UTC 2012-03-04 17:07:15



Do not forget to seed :D